<svg xmlns="http://www.w3.org/2000/svg" viewBox="0 0 64 64" width="64" height="64" fill="none"><title>Phikila</title>
  <path d="M20 5H44A11 11 0 0 1 55 16V30.6C55 43.4 45.5 52.9 32 58.4 18.5 52.9 9 43.4 9 30.6V16A11 11 0 0 1 20 5Z" fill="#0F2A47"/>
  <path d="M31.05 21.9C28.3 19.6 24.6 18.2 20.3 18.2A2.3 2.3 0 0 0 18 20.5V36.8A2.3 2.3 0 0 0 20.3 39.1C24.6 39.1 28.3 40.3 31.05 42.3Z" fill="#FFFFFF"/>
  <path d="M32.95 21.9C35.7 19.6 39.4 18.2 43.7 18.2A2.3 2.3 0 0 1 46 20.5V36.8A2.3 2.3 0 0 1 43.7 39.1C39.4 39.1 35.7 40.3 32.95 42.3Z" fill="#FFFFFF"/>
  <circle cx="41.6" cy="37.6" r="9.2" fill="#0F2A47"/>
  <circle cx="41.6" cy="37.6" r="7.3" fill="#FFFFFF"/>
  <path d="M38.1 37.7 40.8 40.4 45.3 35.0" fill="none" stroke="#0F2A47" stroke-width="2.5" stroke-linecap="round" stroke-linejoin="round"/>
  <path d="M30.9 17.6H33.1V25.4L32 24.1 30.9 25.4Z" fill="#FFFFFF"/></svg>
