<svg xmlns="http://www.w3.org/2000/svg" viewBox="0 0 512 512" role="img" aria-labelledby="title desc"><title id="title">Phikila School Management System</title><desc id="desc">Gold and black Phikila education emblem</desc><defs><linearGradient id="gold" x1="0" y1="0" x2="1" y2="1"><stop stop-color="#9a6815"/><stop offset=".45" stop-color="#e5b84c"/><stop offset="1" stop-color="#a97219"/></linearGradient></defs><rect width="512" height="512" fill="#fff"/><circle cx="256" cy="256" r="238" fill="none" stroke="url(#gold)" stroke-width="8"/><circle cx="256" cy="256" r="226" fill="none" stroke="#bd8a2a" stroke-width="2"/><g fill="url(#gold)"><path d="M256 36l7 22 22 7-22 7-7 22-7-22-22-7 22-7z"/><path d="M69 256l7 22 22 7-22 7-7 22-7-22-22-7 22-7z"/><path d="M443 256l7 22 22 7-22 7-7 22-7-22-22-7 22-7z"/><path d="M256 426l7 22 22 7-22 7-7 22-7-22-22-7 22-7z"/></g><path d="M150 137l106-42 106 42-106 42z" fill="url(#gold)"/><path d="M174 145v73c0 20 164 20 164 0v-73" fill="none" stroke="url(#gold)" stroke-width="10"/><path d="M177 149v91" stroke="url(#gold)" stroke-width="5"/><circle cx="177" cy="246" r="8" fill="url(#gold)"/><path d="M177 254v49m-10-35l10 35m0-35l10 35m-15-27l5 27m5-27l-5 27" stroke="url(#gold)" stroke-width="3" fill="none"/><path d="M190 191c17-14 39-21 66-21s49 7 66 21v75c-17-11-39-16-66-16s-49 5-66 16z" fill="#171717"/><path d="M198 196c16-10 35-14 58-14s42 4 58 14v59c-17-8-36-12-58-12s-41 4-58 12z" fill="#fff"/><path d="M256 181v84" stroke="#d8a63d" stroke-width="5"/><path d="M198 197c15-8 33-11 58-11v55c-23 0-42 4-58 12z" fill="#151515"/><path d="M314 197c-15-8-33-11-58-11v55c23 0 42 4 58 12z" fill="url(#gold)"/><path d="M256 261c-18 0-38 4-58 13 22 8 42 12 58 12s36-4 58-12c-20-9-40-13-58-13z" fill="#171717"/><text x="256" y="368" text-anchor="middle" font-family="Georgia, 'Times New Roman', serif" font-size="64" letter-spacing="-2" fill="#111">Phikila</text><path d="M126 389h260" stroke="#c79432" stroke-width="3"/><path d="M256 378l8 11-8 11-8-11z" fill="#c79432"/></svg>